<svg xmlns="http://www.w3.org/2000/svg" viewBox="0 0 768 768" role="img" aria-labelledby="title">
  <title id="title">Qveli</title>
  <defs>
    <linearGradient id="globe" x1=".12" y1=".12" x2=".9" y2=".88">
      <stop stop-color="#1649a5"/>
      <stop offset=".55" stop-color="#1676bd"/>
      <stop offset="1" stop-color="#29b5d8"/>
    </linearGradient>
    <clipPath id="sphere"><circle cx="384" cy="329" r="236"/></clipPath>
  </defs>
  <rect width="768" height="768" fill="#fff"/>
  <circle cx="384" cy="329" r="236" fill="url(#globe)"/>
  <g clip-path="url(#sphere)" fill="none" stroke="#a9d3f2" stroke-opacity=".58" stroke-width="3">
    <ellipse cx="384" cy="329" rx="198" ry="236"/>
    <ellipse cx="384" cy="329" rx="132" ry="236"/>
    <ellipse cx="384" cy="329" rx="65" ry="236"/>
    <ellipse cx="384" cy="329" rx="236" ry="170"/>
    <ellipse cx="384" cy="329" rx="236" ry="104"/>
    <path d="M148 329h472M384 93v472"/>
  </g>
  <path d="M394 114a215 215 0 0 1 153 371l-33-39a164 164 0 0 0-119-281c-51 0-84 25-112 71l-38-27c35-59 82-95 149-95Z" fill="#fff"/>
  <g fill="none" stroke="#1972b8" stroke-width="4" stroke-linecap="round">
    <path d="m378 142 34-20 31 12 18 31 42 15 19 38 29 4 28 49-9 43 24 39-14 52-28 29-16 46-47 13-39 31-42-30-31-25-29-38-24-32 45-52 71-45-2-61-45-50 40-41-27-37-48 9Z"/>
    <path d="m378 142 6 33 54 30 65-22m-107 22-56 38 56 60 101-28 58 46 40 42m-98-120 14 78-43 92 47 85m-119-195-5 113-54 22 30 40m126-197 54-67m-89 122 98 87 52-1"/>
  </g>
  <g fill="#176ab2">
    <circle cx="378" cy="142" r="9"/><circle cx="412" cy="122" r="9"/><circle cx="443" cy="134" r="9"/><circle cx="461" cy="165" r="9"/>
    <circle cx="503" cy="180" r="10"/><circle cx="522" cy="218" r="9"/><circle cx="551" cy="222" r="9"/><circle cx="579" cy="271" r="9"/>
    <circle cx="570" cy="314" r="9"/><circle cx="594" cy="353" r="9"/><circle cx="580" cy="405" r="9"/><circle cx="552" cy="434" r="9"/>
    <circle cx="536" cy="480" r="9"/><circle cx="489" cy="493" r="9"/><circle cx="384" cy="175" r="13"/><circle cx="438" cy="205" r="12"/>
    <circle cx="503" cy="183" r="13"/><circle cx="522" cy="261" r="12"/><circle cx="486" cy="279" r="14"/><circle cx="384" cy="289" r="12"/>
    <circle cx="441" cy="229" r="13"/><circle cx="540" cy="330" r="12"/><circle cx="487" cy="384" r="12"/><circle cx="382" cy="355" r="15"/>
  </g>
  <path d="M383 355c44 34 79 74 117 111l60 62-28 28-64-55c-47-39-93-70-137-104Z" fill="url(#globe)"/>
  <circle cx="560" cy="528" r="17" fill="#22a9d1"/>
  <circle cx="597" cy="554" r="15" fill="#22a9d1"/>
  <text x="384" y="704" fill="#28539b" font-family="Arial, Helvetica, sans-serif" font-size="137" font-weight="300" letter-spacing="-5" text-anchor="middle">Qveli</text>
</svg>